<mxfile host="app.diagrams.net" modified="2023-09-19T00:42:28.125Z" agent="Mozilla/5.0 (Windows NT 10.0; Win64; x64) AppleWebKit/537.36 (KHTML, like Gecko) Chrome/117.0.0.0 Safari/537.36" version="21.7.5" etag="gBTqkqOilDGh7E7p0yoD" type="github">
  <diagram name="Page-1" id="sx6hrf4t6h9wmHS-An3i">
    <mxGraphModel>
      <root>
        <mxCell id="0" />
        <mxCell id="1" parent="0" />
      </root>
    </mxGraphModel>
  </diagram>
</mxfile>
